<mxfile host="app.diagrams.net" modified="2020-12-09T01:31:14.373Z" agent="5.0 (Macintosh; Intel Mac OS X 10_15_7) AppleWebKit/537.36 (KHTML, like Gecko) Chrome/87.0.4280.88 Safari/537.36" etag="Heeo13wr7ttGUABW6Npz" version="13.11.0" type="github">
  <diagram id="wKcpJ1MoGPsjlew4tpE2" name="Game State and Actors">
    <mxGraphModel dx="2276" dy="826" grid="1" gridSize="10" guides="1" tooltips="1" connect="1" arrows="1" fold="1" page="1" pageScale="1" pageWidth="850" pageHeight="1100" math="0" shadow="0">
      <root>
        <mxCell id="0" />
        <mxCell id="1" parent="0" />
        <mxCell id="601QQW2Ij4bVxw6Ef1ii-1" value="Actor" style="shape=umlActor;verticalLabelPosition=bottom;verticalAlign=top;html=1;outlineConnect=0;fillColor=#d5e8d4;strokeColor=#82b366;" parent="1" vertex="1">
          <mxGeometry width="40" height="80" as="geometry" />
        </mxCell>
        <mxCell id="601QQW2Ij4bVxw6Ef1ii-2" value="Decide the direction by choosing a pointer card." style="rounded=1;whiteSpace=wrap;html=1;fillColor=#d5e8d4;strokeColor=#82b366;" parent="1" vertex="1">
          <mxGeometry x="120" width="120" height="60" as="geometry" />
        </mxCell>
        <mxCell id="601QQW2Ij4bVxw6Ef1ii-3" value="Main Game State&lt;br&gt;" style="text;html=1;strokeColor=none;fillColor=none;align=center;verticalAlign=middle;whiteSpace=wrap;rounded=0;" parent="1" vertex="1">
          <mxGeometry y="110" width="40" height="20" as="geometry" />
        </mxCell>
        <mxCell id="601QQW2Ij4bVxw6Ef1ii-4" value="" style="endArrow=classic;html=1;entryX=0.5;entryY=0.5;entryDx=0;entryDy=0;entryPerimeter=0;exitX=0;exitY=0.5;exitDx=0;exitDy=0;strokeColor=#00994D;" parent="1" source="601QQW2Ij4bVxw6Ef1ii-2" target="601QQW2Ij4bVxw6Ef1ii-1" edge="1">
          <mxGeometry width="50" height="50" relative="1" as="geometry">
            <mxPoint x="60" y="65" as="sourcePoint" />
            <mxPoint x="110" y="15" as="targetPoint" />
          </mxGeometry>
        </mxCell>
        <mxCell id="601QQW2Ij4bVxw6Ef1ii-5" value="Reset back to Start Menu" style="rounded=1;whiteSpace=wrap;html=1;" parent="1" vertex="1">
          <mxGeometry x="120" y="80" width="120" height="60" as="geometry" />
        </mxCell>
        <mxCell id="601QQW2Ij4bVxw6Ef1ii-6" value="" style="endArrow=classic;html=1;exitX=0;exitY=0.5;exitDx=0;exitDy=0;entryX=0.5;entryY=0.5;entryDx=0;entryDy=0;entryPerimeter=0;strokeColor=#00994D;" parent="1" source="601QQW2Ij4bVxw6Ef1ii-5" target="601QQW2Ij4bVxw6Ef1ii-1" edge="1">
          <mxGeometry width="50" height="50" relative="1" as="geometry">
            <mxPoint x="60" y="100" as="sourcePoint" />
            <mxPoint x="110" y="50" as="targetPoint" />
          </mxGeometry>
        </mxCell>
        <mxCell id="601QQW2Ij4bVxw6Ef1ii-8" value="Actor" style="shape=umlActor;verticalLabelPosition=bottom;verticalAlign=top;html=1;outlineConnect=0;fillColor=#ffe6cc;strokeColor=#d79b00;" parent="1" vertex="1">
          <mxGeometry y="160" width="40" height="80" as="geometry" />
        </mxCell>
        <mxCell id="601QQW2Ij4bVxw6Ef1ii-9" value="Combat&lt;br&gt;State" style="text;html=1;strokeColor=none;fillColor=none;align=center;verticalAlign=middle;whiteSpace=wrap;rounded=0;" parent="1" vertex="1">
          <mxGeometry y="270" width="40" height="20" as="geometry" />
        </mxCell>
        <mxCell id="601QQW2Ij4bVxw6Ef1ii-14" value="Attack Enemy" style="rounded=1;whiteSpace=wrap;html=1;" parent="1" vertex="1">
          <mxGeometry x="120" y="160" width="120" height="60" as="geometry" />
        </mxCell>
        <mxCell id="601QQW2Ij4bVxw6Ef1ii-15" value="" style="endArrow=classic;html=1;entryX=0.5;entryY=0.5;entryDx=0;entryDy=0;entryPerimeter=0;exitX=0;exitY=0.5;exitDx=0;exitDy=0;strokeColor=#FFB570;" parent="1" source="601QQW2Ij4bVxw6Ef1ii-14" target="601QQW2Ij4bVxw6Ef1ii-8" edge="1">
          <mxGeometry width="50" height="50" relative="1" as="geometry">
            <mxPoint x="50" y="220" as="sourcePoint" />
            <mxPoint x="100" y="170" as="targetPoint" />
          </mxGeometry>
        </mxCell>
        <mxCell id="601QQW2Ij4bVxw6Ef1ii-16" value="Get Attacked" style="rounded=1;whiteSpace=wrap;html=1;" parent="1" vertex="1">
          <mxGeometry x="120" y="240" width="120" height="60" as="geometry" />
        </mxCell>
        <mxCell id="601QQW2Ij4bVxw6Ef1ii-17" value="" style="endArrow=classic;html=1;entryX=0.5;entryY=0.5;entryDx=0;entryDy=0;entryPerimeter=0;exitX=0;exitY=0.5;exitDx=0;exitDy=0;strokeColor=#FFB570;" parent="1" source="601QQW2Ij4bVxw6Ef1ii-16" target="601QQW2Ij4bVxw6Ef1ii-8" edge="1">
          <mxGeometry width="50" height="50" relative="1" as="geometry">
            <mxPoint x="60" y="260" as="sourcePoint" />
            <mxPoint x="110" y="210" as="targetPoint" />
          </mxGeometry>
        </mxCell>
        <mxCell id="601QQW2Ij4bVxw6Ef1ii-18" value="Lose the Game" style="rounded=1;whiteSpace=wrap;html=1;" parent="1" vertex="1">
          <mxGeometry x="120" y="320" width="120" height="60" as="geometry" />
        </mxCell>
        <mxCell id="601QQW2Ij4bVxw6Ef1ii-20" value="" style="endArrow=classic;html=1;exitX=0;exitY=0.5;exitDx=0;exitDy=0;entryX=0.5;entryY=0.5;entryDx=0;entryDy=0;entryPerimeter=0;strokeColor=#FFB570;" parent="1" source="601QQW2Ij4bVxw6Ef1ii-18" target="601QQW2Ij4bVxw6Ef1ii-8" edge="1">
          <mxGeometry width="50" height="50" relative="1" as="geometry">
            <mxPoint x="50" y="320" as="sourcePoint" />
            <mxPoint x="100" y="270" as="targetPoint" />
          </mxGeometry>
        </mxCell>
        <mxCell id="601QQW2Ij4bVxw6Ef1ii-21" value="" style="endArrow=classic;html=1;exitX=0;exitY=0.5;exitDx=0;exitDy=0;entryX=0.5;entryY=0.5;entryDx=0;entryDy=0;entryPerimeter=0;strokeColor=#FFB570;" parent="1" source="601QQW2Ij4bVxw6Ef1ii-5" target="601QQW2Ij4bVxw6Ef1ii-8" edge="1">
          <mxGeometry width="50" height="50" relative="1" as="geometry">
            <mxPoint x="60" y="170" as="sourcePoint" />
            <mxPoint x="110" y="120" as="targetPoint" />
          </mxGeometry>
        </mxCell>
        <mxCell id="601QQW2Ij4bVxw6Ef1ii-22" value="Actor" style="shape=umlActor;verticalLabelPosition=bottom;verticalAlign=top;html=1;outlineConnect=0;fillColor=#f8cecc;strokeColor=#b85450;" parent="1" vertex="1">
          <mxGeometry y="400" width="40" height="80" as="geometry" />
        </mxCell>
        <mxCell id="601QQW2Ij4bVxw6Ef1ii-23" value="Boss Combat State" style="text;html=1;strokeColor=none;fillColor=none;align=center;verticalAlign=middle;whiteSpace=wrap;rounded=0;" parent="1" vertex="1">
          <mxGeometry y="510" width="40" height="20" as="geometry" />
        </mxCell>
        <mxCell id="601QQW2Ij4bVxw6Ef1ii-27" value="" style="endArrow=classic;html=1;entryX=0.5;entryY=0.5;entryDx=0;entryDy=0;entryPerimeter=0;exitX=0;exitY=0.5;exitDx=0;exitDy=0;strokeColor=#FF0000;" parent="1" source="601QQW2Ij4bVxw6Ef1ii-18" target="601QQW2Ij4bVxw6Ef1ii-22" edge="1">
          <mxGeometry width="50" height="50" relative="1" as="geometry">
            <mxPoint x="110" y="480" as="sourcePoint" />
            <mxPoint x="160" y="430" as="targetPoint" />
          </mxGeometry>
        </mxCell>
        <mxCell id="601QQW2Ij4bVxw6Ef1ii-28" value="" style="endArrow=classic;html=1;entryX=0.5;entryY=0.5;entryDx=0;entryDy=0;entryPerimeter=0;exitX=0;exitY=0.5;exitDx=0;exitDy=0;strokeColor=#FF0000;" parent="1" source="601QQW2Ij4bVxw6Ef1ii-16" target="601QQW2Ij4bVxw6Ef1ii-22" edge="1">
          <mxGeometry width="50" height="50" relative="1" as="geometry">
            <mxPoint x="30" y="380" as="sourcePoint" />
            <mxPoint x="80" y="330" as="targetPoint" />
          </mxGeometry>
        </mxCell>
        <mxCell id="601QQW2Ij4bVxw6Ef1ii-29" value="" style="endArrow=classic;html=1;entryX=0.5;entryY=0.5;entryDx=0;entryDy=0;entryPerimeter=0;exitX=0;exitY=0.5;exitDx=0;exitDy=0;strokeColor=#FF0000;" parent="1" source="601QQW2Ij4bVxw6Ef1ii-14" target="601QQW2Ij4bVxw6Ef1ii-22" edge="1">
          <mxGeometry width="50" height="50" relative="1" as="geometry">
            <mxPoint x="10" y="360" as="sourcePoint" />
            <mxPoint x="60" y="310" as="targetPoint" />
          </mxGeometry>
        </mxCell>
        <mxCell id="601QQW2Ij4bVxw6Ef1ii-30" value="" style="endArrow=classic;html=1;entryX=0.5;entryY=0.5;entryDx=0;entryDy=0;entryPerimeter=0;exitX=0;exitY=0.5;exitDx=0;exitDy=0;fillColor=#f8cecc;strokeColor=#FF0000;" parent="1" source="601QQW2Ij4bVxw6Ef1ii-5" target="601QQW2Ij4bVxw6Ef1ii-22" edge="1">
          <mxGeometry width="50" height="50" relative="1" as="geometry">
            <mxPoint y="360" as="sourcePoint" />
            <mxPoint x="50" y="310" as="targetPoint" />
          </mxGeometry>
        </mxCell>
        <mxCell id="601QQW2Ij4bVxw6Ef1ii-31" value="Move on to Win State" style="rounded=1;whiteSpace=wrap;html=1;fillColor=#f8cecc;strokeColor=#b85450;" parent="1" vertex="1">
          <mxGeometry x="120" y="400" width="120" height="60" as="geometry" />
        </mxCell>
        <mxCell id="601QQW2Ij4bVxw6Ef1ii-32" value="" style="endArrow=classic;html=1;entryX=0.5;entryY=0.5;entryDx=0;entryDy=0;entryPerimeter=0;exitX=0;exitY=0.5;exitDx=0;exitDy=0;strokeColor=#FF0000;" parent="1" source="601QQW2Ij4bVxw6Ef1ii-31" target="601QQW2Ij4bVxw6Ef1ii-22" edge="1">
          <mxGeometry width="50" height="50" relative="1" as="geometry">
            <mxPoint x="60" y="465" as="sourcePoint" />
            <mxPoint x="110" y="415" as="targetPoint" />
          </mxGeometry>
        </mxCell>
        <mxCell id="601QQW2Ij4bVxw6Ef1ii-33" value="Actor" style="shape=umlActor;verticalLabelPosition=bottom;verticalAlign=top;html=1;outlineConnect=0;fillColor=#dae8fc;strokeColor=#6c8ebf;" parent="1" vertex="1">
          <mxGeometry y="560" width="40" height="80" as="geometry" />
        </mxCell>
        <mxCell id="601QQW2Ij4bVxw6Ef1ii-34" value="Win State&lt;br&gt;" style="text;html=1;strokeColor=none;fillColor=none;align=center;verticalAlign=middle;whiteSpace=wrap;rounded=0;" parent="1" vertex="1">
          <mxGeometry y="670" width="40" height="20" as="geometry" />
        </mxCell>
        <mxCell id="601QQW2Ij4bVxw6Ef1ii-36" value="Win The Game" style="rounded=1;whiteSpace=wrap;html=1;fillColor=#dae8fc;strokeColor=#6c8ebf;" parent="1" vertex="1">
          <mxGeometry x="120" y="480" width="120" height="60" as="geometry" />
        </mxCell>
        <mxCell id="601QQW2Ij4bVxw6Ef1ii-37" value="" style="endArrow=classic;html=1;exitX=0;exitY=0.5;exitDx=0;exitDy=0;entryX=0.5;entryY=0.5;entryDx=0;entryDy=0;entryPerimeter=0;strokeColor=#0000FF;" parent="1" source="601QQW2Ij4bVxw6Ef1ii-36" target="601QQW2Ij4bVxw6Ef1ii-33" edge="1">
          <mxGeometry width="50" height="50" relative="1" as="geometry">
            <mxPoint x="50" y="620" as="sourcePoint" />
            <mxPoint x="100" y="570" as="targetPoint" />
          </mxGeometry>
        </mxCell>
        <mxCell id="601QQW2Ij4bVxw6Ef1ii-38" value="Interact with the screen to &#39;open&#39; the escape pod." style="rounded=1;whiteSpace=wrap;html=1;fillColor=#dae8fc;strokeColor=#6c8ebf;" parent="1" vertex="1">
          <mxGeometry x="120" y="560" width="120" height="60" as="geometry" />
        </mxCell>
        <mxCell id="601QQW2Ij4bVxw6Ef1ii-39" value="" style="endArrow=classic;html=1;strokeColor=#0000FF;entryX=0.5;entryY=0.5;entryDx=0;entryDy=0;entryPerimeter=0;exitX=0;exitY=0.5;exitDx=0;exitDy=0;" parent="1" source="601QQW2Ij4bVxw6Ef1ii-38" target="601QQW2Ij4bVxw6Ef1ii-33" edge="1">
          <mxGeometry width="50" height="50" relative="1" as="geometry">
            <mxPoint x="50" y="650" as="sourcePoint" />
            <mxPoint x="100" y="600" as="targetPoint" />
          </mxGeometry>
        </mxCell>
        <mxCell id="601QQW2Ij4bVxw6Ef1ii-40" value="" style="endArrow=classic;html=1;strokeColor=#0000FF;entryX=0.5;entryY=0.5;entryDx=0;entryDy=0;entryPerimeter=0;exitX=0;exitY=0.5;exitDx=0;exitDy=0;" parent="1" source="601QQW2Ij4bVxw6Ef1ii-5" target="601QQW2Ij4bVxw6Ef1ii-33" edge="1">
          <mxGeometry width="50" height="50" relative="1" as="geometry">
            <mxPoint x="60" y="500" as="sourcePoint" />
            <mxPoint x="110" y="450" as="targetPoint" />
          </mxGeometry>
        </mxCell>
        <mxCell id="601QQW2Ij4bVxw6Ef1ii-43" value="" style="rounded=0;whiteSpace=wrap;html=1;gradientColor=#b3b3b3;fillColor=#f5f5f5;strokeColor=#666666;" parent="1" vertex="1">
          <mxGeometry x="320" width="320" height="240" as="geometry" />
        </mxCell>
        <mxCell id="601QQW2Ij4bVxw6Ef1ii-44" value="" style="rounded=0;whiteSpace=wrap;html=1;gradientColor=#97d077;fillColor=#d5e8d4;strokeColor=#82b366;" parent="1" vertex="1">
          <mxGeometry x="320" y="280" width="320" height="240" as="geometry" />
        </mxCell>
        <mxCell id="601QQW2Ij4bVxw6Ef1ii-47" value="Start Game" style="rounded=1;whiteSpace=wrap;html=1;" parent="1" vertex="1">
          <mxGeometry x="435" y="200" width="90" height="20" as="geometry" />
        </mxCell>
        <mxCell id="601QQW2Ij4bVxw6Ef1ii-49" value="ESCAPE!" style="text;html=1;strokeColor=none;fillColor=none;align=center;verticalAlign=middle;whiteSpace=wrap;rounded=0;" parent="1" vertex="1">
          <mxGeometry x="380" width="200" height="20" as="geometry" />
        </mxCell>
        <mxCell id="601QQW2Ij4bVxw6Ef1ii-50" value="&lt;h1 style=&quot;text-align: center&quot;&gt;RULES&lt;/h1&gt;&lt;p style=&quot;text-align: center&quot;&gt;RULES GO HERE RULES GO HERE RULES GO HERE RULES GO HERE RULES GO HERE RULES GO HERE REULES GO HERE RULES GO HERE&lt;/p&gt;" style="text;html=1;strokeColor=none;fillColor=none;spacing=5;spacingTop=-20;whiteSpace=wrap;overflow=hidden;rounded=0;" parent="1" vertex="1">
          <mxGeometry x="385" y="50" width="190" height="120" as="geometry" />
        </mxCell>
        <mxCell id="601QQW2Ij4bVxw6Ef1ii-51" value="" style="rounded=1;whiteSpace=wrap;html=1;" parent="1" vertex="1">
          <mxGeometry x="400" y="460" width="45" height="60" as="geometry" />
        </mxCell>
        <mxCell id="601QQW2Ij4bVxw6Ef1ii-52" value="" style="rounded=1;whiteSpace=wrap;html=1;" parent="1" vertex="1">
          <mxGeometry x="455" y="460" width="45" height="60" as="geometry" />
        </mxCell>
        <mxCell id="601QQW2Ij4bVxw6Ef1ii-53" value="" style="rounded=1;whiteSpace=wrap;html=1;" parent="1" vertex="1">
          <mxGeometry x="510" y="460" width="40" height="60" as="geometry" />
        </mxCell>
        <mxCell id="601QQW2Ij4bVxw6Ef1ii-56" value="" style="shape=flexArrow;endArrow=classic;html=1;strokeColor=#0000FF;width=10;endSize=6.67;" parent="1" edge="1">
          <mxGeometry width="50" height="50" relative="1" as="geometry">
            <mxPoint x="477" y="512.5" as="sourcePoint" />
            <mxPoint x="477" y="467.5" as="targetPoint" />
          </mxGeometry>
        </mxCell>
        <mxCell id="601QQW2Ij4bVxw6Ef1ii-58" value="" style="shape=flexArrow;endArrow=classic;html=1;strokeColor=#0000FF;endWidth=14;endSize=5.67;" parent="1" edge="1">
          <mxGeometry width="50" height="50" relative="1" as="geometry">
            <mxPoint x="442.5" y="489.5" as="sourcePoint" />
            <mxPoint x="402.5" y="490" as="targetPoint" />
          </mxGeometry>
        </mxCell>
        <mxCell id="601QQW2Ij4bVxw6Ef1ii-60" value="" style="shape=flexArrow;endArrow=classic;html=1;strokeColor=#0000FF;endWidth=14;endSize=5.67;entryX=1;entryY=0.5;entryDx=0;entryDy=0;" parent="1" target="601QQW2Ij4bVxw6Ef1ii-53" edge="1">
          <mxGeometry width="50" height="50" relative="1" as="geometry">
            <mxPoint x="510" y="489.5" as="sourcePoint" />
            <mxPoint x="545" y="489.5" as="targetPoint" />
          </mxGeometry>
        </mxCell>
        <mxCell id="601QQW2Ij4bVxw6Ef1ii-62" value="Reset Game" style="rounded=1;whiteSpace=wrap;html=1;" parent="1" vertex="1">
          <mxGeometry x="550" y="280" width="90" height="20" as="geometry" />
        </mxCell>
        <mxCell id="601QQW2Ij4bVxw6Ef1ii-64" value="start screen" style="text;html=1;align=center;verticalAlign=middle;whiteSpace=wrap;rounded=0;rotation=-30;fillColor=#ffff88;strokeColor=#36393d;" parent="1" vertex="1">
          <mxGeometry x="331.16" y="14.33" width="60" height="30" as="geometry" />
        </mxCell>
        <mxCell id="601QQW2Ij4bVxw6Ef1ii-66" value="Main Game State" style="text;html=1;align=center;verticalAlign=middle;whiteSpace=wrap;rounded=0;rotation=-30;fillColor=#ffff88;strokeColor=#36393d;" parent="1" vertex="1">
          <mxGeometry x="333.66" y="299.33" width="60" height="40" as="geometry" />
        </mxCell>
        <mxCell id="601QQW2Ij4bVxw6Ef1ii-67" value="" style="rounded=0;whiteSpace=wrap;html=1;fillColor=#ffcccc;strokeColor=#36393d;" parent="1" vertex="1">
          <mxGeometry x="320" y="560" width="320" height="240" as="geometry" />
        </mxCell>
        <mxCell id="601QQW2Ij4bVxw6Ef1ii-68" value="Boss Combat State" style="text;html=1;align=center;verticalAlign=middle;whiteSpace=wrap;rounded=0;rotation=-30;fillColor=#ffff88;strokeColor=#36393d;" parent="1" vertex="1">
          <mxGeometry x="331.16" y="575" width="60" height="50" as="geometry" />
        </mxCell>
        <mxCell id="601QQW2Ij4bVxw6Ef1ii-71" value="" style="whiteSpace=wrap;html=1;aspect=fixed;strokeColor=#FF0000;fillColor=#FFB570;" parent="1" vertex="1">
          <mxGeometry x="455" y="760" width="40" height="40" as="geometry" />
        </mxCell>
        <mxCell id="601QQW2Ij4bVxw6Ef1ii-72" value="" style="shape=cylinder3;whiteSpace=wrap;html=1;boundedLbl=1;backgroundOutline=1;size=15;strokeColor=#FF0000;fillColor=#FFB570;" parent="1" vertex="1">
          <mxGeometry x="456.25" y="750" width="37.5" height="40" as="geometry" />
        </mxCell>
        <mxCell id="601QQW2Ij4bVxw6Ef1ii-73" value="Attack Button" style="text;html=1;strokeColor=none;fillColor=none;align=center;verticalAlign=middle;whiteSpace=wrap;rounded=0;" parent="1" vertex="1">
          <mxGeometry x="460" y="720" width="40" height="20" as="geometry" />
        </mxCell>
        <mxCell id="601QQW2Ij4bVxw6Ef1ii-75" value="Reset Game" style="rounded=1;whiteSpace=wrap;html=1;" parent="1" vertex="1">
          <mxGeometry x="550" y="560" width="90" height="20" as="geometry" />
        </mxCell>
        <mxCell id="601QQW2Ij4bVxw6Ef1ii-76" value="Health" style="rounded=1;whiteSpace=wrap;html=1;" parent="1" vertex="1">
          <mxGeometry x="550" y="480" width="90" height="20" as="geometry" />
        </mxCell>
        <mxCell id="601QQW2Ij4bVxw6Ef1ii-77" value="Energy" style="rounded=1;whiteSpace=wrap;html=1;" parent="1" vertex="1">
          <mxGeometry x="550" y="500" width="90" height="20" as="geometry" />
        </mxCell>
        <mxCell id="601QQW2Ij4bVxw6Ef1ii-78" value="Health" style="rounded=1;whiteSpace=wrap;html=1;" parent="1" vertex="1">
          <mxGeometry x="550" y="760" width="90" height="20" as="geometry" />
        </mxCell>
        <mxCell id="601QQW2Ij4bVxw6Ef1ii-79" value="Energy" style="rounded=1;whiteSpace=wrap;html=1;" parent="1" vertex="1">
          <mxGeometry x="550" y="780" width="90" height="20" as="geometry" />
        </mxCell>
        <mxCell id="601QQW2Ij4bVxw6Ef1ii-80" value="Actor" style="shape=umlActor;verticalLabelPosition=bottom;verticalAlign=top;html=1;outlineConnect=0;strokeColor=#FF0000;fillColor=#FFB570;" parent="1" vertex="1">
          <mxGeometry x="450" y="575" width="55" height="75" as="geometry" />
        </mxCell>
        <mxCell id="601QQW2Ij4bVxw6Ef1ii-81" value="Health" style="rounded=1;whiteSpace=wrap;html=1;" parent="1" vertex="1">
          <mxGeometry x="432.5" y="690" width="90" height="20" as="geometry" />
        </mxCell>
        <mxCell id="601QQW2Ij4bVxw6Ef1ii-83" value="" style="rounded=0;whiteSpace=wrap;html=1;fillColor=#cce5ff;strokeColor=#36393d;" parent="1" vertex="1">
          <mxGeometry x="320" y="840" width="320" height="240" as="geometry" />
        </mxCell>
        <mxCell id="601QQW2Ij4bVxw6Ef1ii-84" value="Win State" style="text;html=1;align=center;verticalAlign=middle;whiteSpace=wrap;rounded=0;rotation=-30;fillColor=#ffff88;strokeColor=#36393d;" parent="1" vertex="1">
          <mxGeometry x="331.16" y="860" width="60" height="50" as="geometry" />
        </mxCell>
        <mxCell id="601QQW2Ij4bVxw6Ef1ii-85" value="Boss" style="text;html=1;strokeColor=none;fillColor=none;align=center;verticalAlign=middle;whiteSpace=wrap;rounded=0;" parent="1" vertex="1">
          <mxGeometry x="460" y="670" width="40" height="20" as="geometry" />
        </mxCell>
        <mxCell id="601QQW2Ij4bVxw6Ef1ii-87" value="" style="shape=cylinder3;whiteSpace=wrap;html=1;boundedLbl=1;backgroundOutline=1;size=15;strokeColor=#36393d;fillColor=#cce5ff;" parent="1" vertex="1">
          <mxGeometry x="450" y="880" width="60" height="80" as="geometry" />
        </mxCell>
        <mxCell id="601QQW2Ij4bVxw6Ef1ii-89" value="" style="rounded=0;whiteSpace=wrap;html=1;strokeColor=#36393d;fillColor=#eeeeee;" parent="1" vertex="1">
          <mxGeometry x="467.5" y="910" width="12.5" height="50" as="geometry" />
        </mxCell>
        <mxCell id="601QQW2Ij4bVxw6Ef1ii-91" value="" style="rounded=0;whiteSpace=wrap;html=1;strokeColor=#36393d;fillColor=#eeeeee;" parent="1" vertex="1">
          <mxGeometry x="480" y="910" width="12.5" height="50" as="geometry" />
        </mxCell>
        <mxCell id="601QQW2Ij4bVxw6Ef1ii-94" value="" style="ellipse;whiteSpace=wrap;html=1;aspect=fixed;strokeColor=#36393d;fillColor=#cdeb8b;" parent="1" vertex="1">
          <mxGeometry x="475" y="930" width="10" height="10" as="geometry" />
        </mxCell>
        <mxCell id="601QQW2Ij4bVxw6Ef1ii-95" value="Click Green button to enter the escape pod and win the game" style="text;html=1;strokeColor=none;fillColor=none;align=center;verticalAlign=middle;whiteSpace=wrap;rounded=0;" parent="1" vertex="1">
          <mxGeometry x="670" y="892.5" width="80" height="85" as="geometry" />
        </mxCell>
        <mxCell id="601QQW2Ij4bVxw6Ef1ii-96" value="" style="endArrow=classic;html=1;strokeColor=#0000FF;exitX=0;exitY=0.5;exitDx=0;exitDy=0;" parent="1" source="601QQW2Ij4bVxw6Ef1ii-95" edge="1">
          <mxGeometry width="50" height="50" relative="1" as="geometry">
            <mxPoint x="570" y="960" as="sourcePoint" />
            <mxPoint x="480" y="935" as="targetPoint" />
          </mxGeometry>
        </mxCell>
        <mxCell id="601QQW2Ij4bVxw6Ef1ii-97" value="Health" style="rounded=1;whiteSpace=wrap;html=1;" parent="1" vertex="1">
          <mxGeometry x="550" y="1040" width="90" height="20" as="geometry" />
        </mxCell>
        <mxCell id="601QQW2Ij4bVxw6Ef1ii-98" value="Energy" style="rounded=1;whiteSpace=wrap;html=1;" parent="1" vertex="1">
          <mxGeometry x="550" y="1060" width="90" height="20" as="geometry" />
        </mxCell>
        <mxCell id="601QQW2Ij4bVxw6Ef1ii-100" value="" style="rounded=1;whiteSpace=wrap;html=1;" parent="1" vertex="1">
          <mxGeometry x="505" y="1020" width="45" height="60" as="geometry" />
        </mxCell>
        <mxCell id="601QQW2Ij4bVxw6Ef1ii-101" value="" style="rounded=1;whiteSpace=wrap;html=1;" parent="1" vertex="1">
          <mxGeometry x="452.5" y="1020" width="45" height="60" as="geometry" />
        </mxCell>
        <mxCell id="601QQW2Ij4bVxw6Ef1ii-102" value="" style="rounded=1;whiteSpace=wrap;html=1;" parent="1" vertex="1">
          <mxGeometry x="400" y="1020" width="45" height="60" as="geometry" />
        </mxCell>
        <mxCell id="601QQW2Ij4bVxw6Ef1ii-103" value="" style="shape=flexArrow;endArrow=classic;html=1;strokeColor=#0000FF;endWidth=14;endSize=5.67;" parent="1" edge="1">
          <mxGeometry width="50" height="50" relative="1" as="geometry">
            <mxPoint x="442.5" y="1049.5" as="sourcePoint" />
            <mxPoint x="402.5" y="1050" as="targetPoint" />
          </mxGeometry>
        </mxCell>
        <mxCell id="601QQW2Ij4bVxw6Ef1ii-104" value="" style="shape=flexArrow;endArrow=classic;html=1;strokeColor=#0000FF;width=10;endSize=6.67;" parent="1" edge="1">
          <mxGeometry width="50" height="50" relative="1" as="geometry">
            <mxPoint x="477" y="1072.5" as="sourcePoint" />
            <mxPoint x="477" y="1027.5" as="targetPoint" />
          </mxGeometry>
        </mxCell>
        <mxCell id="601QQW2Ij4bVxw6Ef1ii-105" value="" style="shape=flexArrow;endArrow=classic;html=1;strokeColor=#0000FF;endWidth=14;endSize=5.67;entryX=1;entryY=0.5;entryDx=0;entryDy=0;" parent="1" edge="1">
          <mxGeometry width="50" height="50" relative="1" as="geometry">
            <mxPoint x="510" y="1049.5" as="sourcePoint" />
            <mxPoint x="550" y="1050" as="targetPoint" />
          </mxGeometry>
        </mxCell>
        <mxCell id="601QQW2Ij4bVxw6Ef1ii-107" value="" style="rounded=0;whiteSpace=wrap;html=1;fillColor=#eeeeee;strokeColor=#36393d;" parent="1" vertex="1">
          <mxGeometry x="320" y="1120" width="320" height="240" as="geometry" />
        </mxCell>
        <mxCell id="601QQW2Ij4bVxw6Ef1ii-108" value="You Escaped Safely Congratulations!" style="shape=tape;whiteSpace=wrap;html=1;fillColor=#cdeb8b;strokeColor=#36393d;" parent="1" vertex="1">
          <mxGeometry x="320" y="1190" width="320" height="100" as="geometry" />
        </mxCell>
        <mxCell id="601QQW2Ij4bVxw6Ef1ii-109" value="Restart" style="rounded=1;whiteSpace=wrap;html=1;" parent="1" vertex="1">
          <mxGeometry x="441.25" y="1340" width="90" height="20" as="geometry" />
        </mxCell>
      </root>
    </mxGraphModel>
  </diagram>
</mxfile>
